<?xml version="1.0" encoding="UTF-8"?>
<svg id="Capa_2" data-name="Capa 2" xmlns="http://www.w3.org/2000/svg" viewBox="0 0 117.54 118.33">
  <defs>
    <style>
      .cls-1 {
        fill: #006847;
      }

      .cls-2 {
        fill: #a3d856;
      }
    </style>
  </defs>
  <g id="Propuesta_Final" data-name="Propuesta Final">
    <g id="amias_iso_color">
      <g>
        <path class="cls-2" d="M19.43,0l14.36,2.53-2.53,14.36-14.36-2.53L19.43,0Z"/>
        <path class="cls-2" d="M31.26,16.9l14.36,2.53-2.53,14.36-14.36-2.53,2.53-14.36Z"/>
        <path class="cls-2" d="M14.36,28.73l14.36,2.53-2.53,14.36-14.36-2.53,2.53-14.36Z"/>
        <path class="cls-2" d="M2.53,11.83l14.36,2.53-2.53,14.36L0,26.2l2.53-14.36Z"/>
      </g>
      <path class="cls-1" d="M99.86,102.33c-1.93,0-3.5-1.57-3.5-3.5V8.23h-16.04c-1.93,19.54-12.27,72.22-35.72,72.22-13.1,0-13.79-28.19-13.79-28.47H14.81v46.85c0,1.93-1.57,3.5-3.5,3.5H.93v16h10.38c10.75,0,19.5-8.75,19.5-19.5v-5.64h1.46c4.52,2.62,9.03,3.26,12.33,3.26,15.21,0,25.97-10.26,33.47-23.13h2.29v25.51c0,10.75,8.75,19.5,19.5,19.5h17.67v-16h-17.67Z"/>
    </g>
  </g>
</svg>